<svg height="512" viewBox="0 0 512 512" width="512" xmlns="http://www.w3.org/2000/svg"><g id="Outline"><path d="m392 16h-272a104.118 104.118 0 0 0 -104 104v272a104.118 104.118 0 0 0 104 104h272a104.118 104.118 0 0 0 104-104v-272a104.118 104.118 0 0 0 -104-104zm88 376a88.1 88.1 0 0 1 -88 88h-272a88.1 88.1 0 0 1 -88-88v-272a88.1 88.1 0 0 1 88-88h272a88.1 88.1 0 0 1 88 88z"/><path d="m333.657 106.343-11.314 11.314 66.344 66.343h-292.687v16h292.687l-66.344 66.343 11.314 11.314 80-80a8 8 0 0 0 0-11.314z"/><path d="m189.657 245.657-11.314-11.314-80 80a8 8 0 0 0 0 11.314l80 80 11.314-11.314-66.344-66.343h292.687v-16h-292.687z"/></g></svg>